<svg xmlns="http://www.w3.org/2000/svg" height="921" width="532">
<path class="map_outline" d="M158 914.7C161.4 910.3 161.6 909.5 159.2 911 154.9 913.7 150.6 911.7 151.3 907.4 151.6 905.4 152.8 904 153.9 904.3 156.3 904.8 160.4 901.8 160.4 899.7 160.4 898.9 159.6 898.3 158.6 898.3 157.6 898.3 156 897.2 154.9 895.7 152.7 892.6 149.4 894.2 149.4 898.3 149.4 899.9 148.1 902.2 146.5 903.3 143.9 905.2 143.2 906.3 143.2 908.4 143.2 908.8 141 908.4 138.4 907.5 135.9 906.6 134.2 905.2 134.7 904.3 135.2 903.5 134.2 901.7 132.3 900.5 129 898.1 127.7 890.5 130.6 890.5 131.5 890.5 132.2 889.8 132.2 889 132.2 888.1 131.1 887.8 129.8 888.3 128.4 888.9 127.5 888.3 127.5 886.9 127.5 885.6 126.3 884.1 124.9 883.6 122.9 882.8 122.8 882.1 124.3 880.2 125.9 878.3 125.7 877.9 123.1 877.9 119.4 877.9 117.3 873.7 119.6 870.9 120.4 869.9 120.7 868.5 120.2 868 119.6 867.4 120.3 866.6 121.6 866 123.6 865.3 123.1 864.2 118.9 860.5 113.4 855.6 110.2 855 105.4 857.6 102.8 858.9 102.3 858.7 102.3 855.9 102.3 854.2 103.4 852.3 104.7 851.8 106 851.3 107 849.7 107 848.3 107 846.4 106 846.8 103.2 850 100.8 852.7 98.4 854 96.9 853.4 95.6 852.9 94.5 853.1 94.5 853.8 94.5 855.8 85.2 855.1 83.1 852.9 81.6 851.4 81.7 850.6 83.8 849 86.2 847.3 86.2 846.8 84.2 844.7 81.6 842.1 82.7 837.1 85.9 837.1 89 837.1 89.5 834 88 822.2 86.4 809.6 87.4 802.8 91.2 799.4 92.6 798.1 95.9 792.6 98.4 787.2 102.4 778.5 102.8 776.7 101.3 771.2 100.1 766.5 100.2 763.9 101.9 759.9 104.8 753.2 103.3 737.6 99.1 729.8 95.4 722.8 95.2 713.1 98.6 706.4 100.4 703 100.6 701.3 99.4 700.9 98.4 700.6 97.6 698.3 97.6 695.8 97.6 693.3 96.7 690.7 95.5 690 93.9 689.1 93.7 686.3 94.6 677.9 95.3 670.9 95.1 666 94 664.3 91.5 660.2 96.5 646.4 102.2 641.6 108.5 636.2 115 624.2 115.6 616.6 116.4 607.1 117.1 605.2 121.1 601.7 123.9 599.3 125.3 599 126.9 600.3 129.5 602.4 128 605.3 124.9 604.2 123.7 603.7 122.7 604.1 122.7 605 122.7 606.1 124.7 606.3 128.4 605.7 131.9 605 134.8 605.3 136.2 606.5 138 608 138.4 607.6 138.4 604.2 138.4 601.9 137.7 600.1 136.9 600.1 136 600.1 135.3 599 135.3 597.7 135.3 596.4 136.7 595.4 138.4 595.4 140.3 595.4 141.6 596.4 141.6 597.9 141.6 599.5 142.4 600.1 143.9 599.5 147 598.3 148.6 601.3 146.2 604.1 143.7 607.1 145.4 607 148.5 604 150.6 601.8 150.5 601 147.8 596.3 144.8 591.4 145 585 148 586.9 148.8 587.3 150.1 585.9 151 583.7 151.8 581.5 153.2 579.7 154.1 579.7 154.9 579.7 156.7 577.6 158 575 161.2 569 166.1 566.2 169.2 568.8 170.9 570.2 171.9 570.2 173.8 568.7 177.1 566 176.7 563.5 173.1 564.4 170.4 565.1 168.4 562.2 168.3 557.6 168.2 555.6 179.4 552.8 181.3 554.3 182.6 555.4 184.2 555.2 186.2 553.7 187.9 552.4 190.5 551.4 192.1 551.4 194.1 551.4 194.9 550.2 194.9 547.4 194.9 543.4 198.1 538.9 200.8 538.9 202.6 538.9 217.9 519.6 219.1 515.9 219.6 514.3 224.3 509.5 229.5 505.2 236.3 499.6 238.9 496.4 238.9 493.6 238.9 489.4 246.7 474.8 251 471.1 254.2 468.4 263.8 466.5 268.4 467.7 270.1 468.2 272.1 469.9 272.9 471.6 274.1 474.3 274.5 474.4 277.4 472.3 280.4 470.1 280.4 470 276.4 468.5 272.2 466.9 269.6 462.8 271.2 460.2 271.7 459.4 273.2 459.5 275 460.4 276.6 461.3 278.2 462 278.6 462 280.2 462 278.4 455.5 276.1 452.9 273.4 449.9 272.5 441.5 274.6 439.4 275.2 438.7 275.9 436 276 433.2 276.1 430.5 276.7 425.7 277.3 422.7 278.2 417.7 277.6 416.4 271.5 409.9 267.8 405.9 263 402.1 260.9 401.5 258.7 400.8 254.2 397.9 250.8 395 247.4 392.1 244 389.7 243.3 389.6 242.6 389.5 239.4 388.8 238.3 388.7 237.3 388.6 237.8 386.5 237.3 383.5 236.8 380.5 235.5 376.4 234.4 374.5 233.4 372.5 226.9 357.8 227.8 356.3 228.3 355.5 227.4 327 228.2 326.9 229 326.8 232.8 300.3 234.4 300.3 235.8 300.3 234.3 295.3 228.9 281.2 226.7 275.5 225.4 270.4 225.9 269.9 226.4 269.3 226 268.9 224.9 268.9 223.9 268.9 222.4 259.2 221.6 258.7 219.9 257.6 224.7 251.6 227.3 251.6 229.4 251.6 231.2 246.1 229.7 244.5 229.1 244 228.7 242 228.7 240.1 228.7 237.3 227.9 236.8 223.7 237 219.2 237.2 218.8 236.9 219.5 233.2 219.9 230.9 220.7 228.3 221.3 227.4 221.8 226.5 223.4 202.7 223.5 201.4 223.6 200.1 224.6 197.9 225.9 196.5 228.6 193.3 228.1 189.1 224.4 185.4 222.9 183.8 221.6 181.2 221.6 179.4 221.6 177.7 220.6 176.3 219.4 176.3 218.1 176.3 216.8 175.7 216.3 175 215.4 173.6 213.6 165.7 213.4 162.3 213.3 161.1 212 159.8 210.4 159.4 208.8 159 207.5 158.1 207.5 157.3 207.5 154.7 199.4 148 196.2 148 194.4 148 193.4 147.5 194 146.9 194.6 146.3 191.7 144.6 187.6 143.2 182.6 141.5 180.2 139.9 180.5 138.3 181 135.1 176.8 131.7 173.8 132.9 172.1 133.6 171.4 132.8 171.4 130 171.4 127.6 169.9 125.1 167.5 123.6 165.3 122.2 158.9 111.3 158 109.6 157 107.9 154.1 105.4 151.5 104.1 147.3 102 146.7 101.1 147.4 96.8 148.1 92.3 147.7 91.7 141.8 89.1L135.4 86.3 141 82.5 146.6 78.7 150.3 82.2C154.7 86.3 156.9 85.3 154.6 80.2 152.3 74.9 155.3 69.1 162.1 65.8 167.6 63.1 168.3 63.1 170.7 65.4 172.1 66.9 173.8 67.6 174.6 67.2 176.3 66.1 191.8 95.9 191.8 100.3 191.8 102.1 192.3 104.1 192.9 104.7 194.1 105.8 194.7 108.7 195.3 115.2 195.6 118.1 196.5 119.1 198.2 118.6 199.6 118.3 203.4 119.8 206.7 122 209.9 124.2 213.3 125.6 214.1 125.1 214.9 124.6 217 125.7 218.8 127.6L222 131 225.6 127.5C227.7 125.7 230.3 124.5 231.5 124.9 234.5 126.1 236.5 124.6 239.5 118.6 241.9 113.9 246.7 111.5 246.7 115.1 246.7 115.9 248.2 116.6 249.9 116.6 251.6 116.6 252.9 117.2 252.8 117.8 252.3 121.3 253.6 122.6 259.2 124.3 262.6 125.3 267.6 128 270.3 130.2 274.9 134.1 275.2 134.2 278.2 131.5 279.9 130 281.3 127.5 281.3 126 281.3 116.6 289.7 108 297.1 109.9 299.5 110.6 300.3 110.3 299.5 109 298.9 108 299 107.2 299.8 107.2 301.6 107.2 301.9 104.5 301.7 88.1 301.7 80.6 304 67.6 305.4 67.1 306.8 66.5 307.5 65.4 307.1 64.7 306.6 63.9 307.4 59.2 309 54.2 310.5 49.3 311.5 42.9 311.3 40.1 310.9 35.5 313 33.6 316.6 35.4 317.3 35.8 321.2 29.5 326.3 19.7 329.7 13.2 332.6 12.4 341.6 15.4 349.1 18 351.9 17.6 351.9 13.7 351.9 12.5 352.9 11.5 354 11.5 356.5 11.5 363.6 5.3 364.9 2 365.7 0 366 0 367.4 2 368.6 3.8 369.8 3.9 372.8 2.5 376.3 0.9 376.6 1 375.9 3.8 375.4 5.4 379.1 13.6 381.8 16.2 384.4 18.8 395.3 28.1 401.4 31.5 411.1 37 412.8 38.8 416.6 46.6 420.9 55.4 420.9 55.5 418 60.5 410.8 73.3 408 77.4 406.7 77.4 405.9 77.4 405.3 80.5 405.3 84.3 405.3 89.3 406 91.5 407.9 92.2 410.1 93 409.2 94.6 402.9 101 398.6 105.3 395.9 108.9 396.7 109 397.5 109.1 400.3 109 402.8 108.8 407 108.5 407.2 108.8 405.4 111 404.2 112.4 400.6 126.1 401.2 126.1 401.7 126.1 400.1 130.2 397.5 135.3 395 140.4 393.2 144.9 393.6 145.3 394.4 146 395.7 152.8 396.6 160.6 396.8 162.8 397.7 167.2 397.6 168.6 397.3 171.3 400.7 174.8 404 175.3 405.1 175.5 407.8 176.7 410 177.9 412.1 179.1 414.4 179.9 415.1 179.8 415.7 179.6 419.4 181.7 419.4 182.7 419.4 183.8 424 188.2 427.2 194.9 431.1 202.9 435.4 209 439.7 212.7 446.2 218.3 446.3 218.4 445.3 226.6 444.7 232.2 443 236.7 440.1 240.5 434.2 248.1 432.2 251.5 422.9 268.9 414.1 285.5 413.7 290.8 420.3 299.5 422.3 302.1 430.3 314.4 429.9 316.2 429.4 318 436.6 331.7 435.9 331.7 435.3 331.7 435.6 332.8 436.7 334.1 438.5 336.2 439.6 340.7 440.2 347.3 440.3 348.5 442 351 444 352.8 446.6 355.1 448.8 360.3 451.4 370.9 456.1 389.9 457.5 400.7 455.4 400.7 454.5 400.7 454.1 400.2 454.5 399.6 454.9 398.9 453.5 398.3 451.4 398.2 449.4 398 448 398.5 448.4 399.2 448.9 399.9 448.1 400.9 446.7 401.4 444.6 402.2 444.5 418.9 444.7 422.5 445 426.1 444.3 429.9 443.3 430.9 440.2 434 441.1 438.2 444.9 438.7 447.5 439.1 448.5 440.3 448.6 443.3 448.7 445.5 449.3 448.2 449.9 449.2 450.6 450.4 449.3 451.7 446.2 452.7 443.6 453.7 441.3 455.2 441.2 456.2 440.3 463.6 440.5 467.7 441.8 469.4 442.7 470.5 442.8 471.4 442.2 471.4 441.5 471.4 441.8 472.4 442.8 473.5 443.8 474.7 447.9 476.1 452 476.7L459.4 477.7 459.1 485.1C459 489.2 458.8 493.5 458.7 494.6 458.7 495.8 458 496.3 457.2 495.8 456.5 495.3 456.1 497.2 456.5 500 456.9 502.8 457.5 507.6 457.7 510.6 458 514.4 459.2 516.7 461.6 517.9 463.5 518.8 466.8 521.2 468.9 523.2 471 525.2 472.8 526.3 472.8 525.6 472.8 524.9 473.8 525.2 475.1 526.3 476.6 527.5 477.1 529.6 476.5 532 475.9 534.3 476.3 535.7 477.4 535.7 478.4 535.7 478.8 536.4 478.3 537.3 477.7 538.2 478 538.9 478.8 538.9 479.8 538.9 479.9 540.6 479.1 543.5 478.4 546 478.2 548.5 478.7 549 479.2 549.5 478.7 549.9 477.7 549.9 476.6 549.9 476.1 550.5 476.6 551.3 477.1 552 476.4 553.1 475 553.6 473.7 554.1 473 555.3 473.6 556.1 474.1 557 473.9 557.7 473.2 557.7 472.5 557.7 471.8 559.1 471.6 560.8 471.5 562.5 469.1 565.9 466.2 568.5L461 573.2 465.6 578C468.1 580.7 469.6 582.8 468.9 582.8 468.2 582.8 469.7 584.4 472.2 586.4 480.8 593 481.9 594.3 481.2 596 480.8 597.1 483.8 598.7 488 599.9 492.2 601.1 496.4 603.2 497.5 604.5 498.6 605.9 499.5 606.3 499.5 605.5 499.5 604.7 501.6 606.4 504.2 609.3 506.8 612.1 508.9 613.8 508.9 613.1 509 612.4 510 613.3 511.3 615 512.7 616.7 514.2 617.9 514.7 617.7 515.3 617.5 515.9 618.2 516.1 619.3 516.9 624.6 517.7 626.1 520.4 627.2 521.9 627.8 522.8 629 522.2 629.9 521.7 630.8 522.3 631.5 523.7 631.5 525 631.5 526.1 632.3 526.1 633.3 526.1 634.4 527.5 636.7 529.2 638.5 532.3 641.7 532.3 641.8 528.6 651.9 526.6 657.5 524.7 664.2 524.4 666.8 524.1 669.4 523.3 672.4 522.5 673.4 521.8 674.4 521.6 676 522.1 676.8 522.6 677.7 521.3 680.3 519.1 682.6 517 684.9 515.5 687.3 515.9 688 516.7 689.2 499.5 709.2 499.5 710.1 499.5 711 488.5 722 488.5 723.3 488.5 724.6 476.6 740.9 474.6 742.7 472.6 744.5 463.3 758.9 461.8 762.4 460.3 765.9 454.9 773.4 450 779 445.1 784.6 440.2 791.1 439.2 793.3 437.4 797.6 428.7 805.7 426 805.7 423.9 805.7 417.9 816 416.8 821.5 416.2 824.6 415.1 825.7 413.1 825.3 410 824.7 405.4 829.3 392 846.1 387 852.4 382.5 857.2 381.8 856.8 381.2 856.4 380.6 856.9 380.5 858 380.3 861.5 378.4 869.2 377.6 870 376.3 871.3 355.9 869.9 354.3 868.4 352.1 866.2 340 866.6 338 869 337 870.2 332.4 872.1 327.6 873.2 322.7 874.4 318.9 876.1 318.9 877.3 318.9 880.7 312.4 881.8 310.1 878.7 308.6 876.6 307.3 876.3 303.7 877.5 301.3 878.3 299.3 880 299.3 881.2 299.3 884.4 296.6 885.9 294.2 883.9 293.1 882.9 289.1 888.2 288.7 889.3 288.1 890.8 278.1 886.5 277.4 887.8 276.8 889.2 259.2 887.1 254.7 891.6 252.1 894.2 249.3 895.2 246.1 895 238 894.4 231.2 898 229.8 903.6 228.7 907.7 227.6 908.6 223.5 909 219.3 909.4 218.5 909 218.5 906.3 218.5 904.5 218.3 903 218.1 903 217.9 903 215.2 903.8 212.2 904.7 200.3 908.4 181.9 912.4 177.5 912.4 174.5 912.4 171.5 913.9 169.2 916.4 166.6 919.2 163.9 920.3 159.7 920.3L153.8 920.3 158 914.7zM134.9 879.5C135.3 878 135.1 877.7 134.2 878.9 133.5 879.8 131.9 881 130.6 881.6 128.9 882.3 129.1 882.5 131.2 882.2 132.9 882 134.5 880.8 134.9 879.5zM59.7 904.3C59 900.3 59.5 899.4 62.7 898.9 66 898.4 66.5 898.8 66.9 903.3 67 905.4 60.1 906.4 59.7 904.3zM34.8 892.8C34.8 891.5 35.9 890.5 37.2 890.5 38.5 890.5 39.6 891.5 39.6 892.8 39.6 894.1 38.5 895.2 37.2 895.2 35.9 895.2 34.8 894.1 34.8 892.8zM23.4 888.1C21 885.1 17.7 882.6 16.2 882.6 12.8 882.6 7.6 877.4 9.3 875.7 10 875.1 8.4 874.8 5.8 875 1.6 875.5 1.1 875.1 0.6 870.7 0.2 866 0.6 865.6 8.3 863.1 15 860.9 18.4 860.5 17.4 859.5 15 857.1 16.8 852.8 20.3 852.8 21.9 852.8 24.7 853.9 26.6 855.2 28.6 856.6 31.9 857.2 34.1 859.7 36.2 862.2 38 865.2 38 866.4 38 867.5 42.7 869.9 42.7 871.6 42.7 873.7 41.9 874.4 40.3 873.8 39 873.3 38 872.1 38 871.2 38 870.2 37 870.8 35.8 872.4 34.1 874.7 34 876.3 35.4 879.2 36.7 882.2 36.6 883.3 34.6 884.8 33.2 885.8 31.8 888 31.5 889.6 30.6 894.4 28.1 894 23.4 888.1zM44.3 891.3C44.3 888.1 47.3 886.6 49.5 888.8 50.9 890.2 50.7 891 49 892.1 45.6 894.2 44.3 894 44.3 891.3zM92.2 889C91.7 888.1 92.1 886.1 93.2 884.4 94.7 881.9 95.7 881.6 98.2 882.9 100.5 884.2 101.6 884 102.7 882 103.8 880 104.8 879.8 107.1 881.1 109.7 882.5 109.9 883.2 108.2 885.9 106.9 888 105.1 888.9 102.7 888.4 100.8 888.1 99.2 888.4 99.2 889.1 99.2 891 93.3 890.8 92.2 889zM81.9 878.8C81.9 877.5 83 876.3 84.3 876.3 85.7 876.3 86.6 874.9 86.6 872.9 86.6 868.4 89.3 871.1 90 876.3 90.5 879.6 89.9 880.4 86.3 880.8 83.2 881.1 81.9 880.6 81.9 878.8zM110.2 874.1C110.2 872.8 111.3 871.6 112.7 871.6 115.4 871.6 115 875 112.1 876 111 876.3 110.2 875.5 110.2 874.1zM59 873C56.8 870.1 57.2 863.4 59.6 862.6 61.9 861.8 62.2 864.8 59.9 866.2 58.8 866.9 58.8 867.9 60 869.4 61 870.6 61.6 872.3 61.2 873.3 60.8 874.6 60.1 874.5 59 873zM107 867.8C107 860.8 111.9 858.2 114.8 863.7 117.5 868.6 116.8 870.1 111.8 870.1 108.7 870.1 107 869.3 107 867.8zM87.4 865.4C86.8 864.4 87 862.8 87.9 861.9 89.9 859.9 91.5 862.5 89.9 865.2 88.9 866.8 88.3 866.8 87.4 865.4zM38 859.7C38 858.4 38.8 857.5 39.9 857.9 42.8 858.8 43.2 862.2 40.5 862.2 39.1 862.2 38 861.1 38 859.7zM97.6 630.7C97.6 629.4 98.7 628.3 100 628.3 101.3 628.3 102.3 629.4 102.3 630.7 102.3 632 101.3 633.1 100 633.1 98.7 633.1 97.6 632 97.6 630.7zM102.7 613.2C99.2 611.7 97.2 606.4 99.3 603.9 101.4 601.3 107 600.9 107 603.3 107 604.4 108.1 604.4 110.2 603.2 112.9 601.8 113.3 602 113.3 605.2 113.3 607.2 111.9 610 110.2 611.5 106.9 614.3 106 614.5 102.7 613.2zM107.5 599.1C106.6 596.6 109.9 593.4 112.1 594.8 114.2 596.1 113.5 599.7 110.9 600.7 109.5 601.2 108.1 600.6 107.5 599.1zM249.2 460C246 455.5 246.1 453.6 249.6 450.4 253.7 446.8 259.5 447.3 263.7 451.7L267.3 455.4 262 459.5C255.5 464.4 252.4 464.6 249.2 460z" class="map_outline" style="fill:none;stroke:#000"/></svg>
